<?xml version="1.0" encoding="UTF-8" standalone="no"?>
<svg
   id="visual"
   viewBox="0 0 900 93.723"
   width="900"
   height="93.723"
   version="1.1"
   sodipodi:docname="decorator-top.svg"
   inkscape:version="1.1.2 (0a00cf5339, 2022-02-04)"
   xmlns:inkscape="http://www.inkscape.org/namespaces/inkscape"
   xmlns:sodipodi="http://sodipodi.sourceforge.net/DTD/sodipodi-0.dtd"
   xmlns="http://www.w3.org/2000/svg"
   xmlns:svg="http://www.w3.org/2000/svg">
  <defs
     id="defs873" />
  <sodipodi:namedview
     id="namedview871"
     pagecolor="#505050"
     bordercolor="#ffffff"
     borderopacity="1"
     inkscape:pageshadow="0"
     inkscape:pageopacity="0"
     inkscape:pagecheckerboard="1"
     showgrid="false"
     height="187.446px"
     inkscape:zoom="0.705"
     inkscape:cx="219.85816"
     inkscape:cy="242.55319"
     inkscape:window-width="2496"
     inkscape:window-height="1404"
     inkscape:window-x="0"
     inkscape:window-y="0"
     inkscape:window-maximized="1"
     inkscape:current-layer="visual" />
  <g
     id="g989"
     transform="scale(1,0.50000075)">
    <path
       d="m 0,174 7.8,1.8 c 7.9,1.9 23.5,5.5 39.4,-2.3 15.8,-7.8 31.8,-27.2 47.6,-32 15.9,-4.8 31.5,4.8 47.2,10.2 15.7,5.3 31.3,6.3 47.2,5 15.8,-1.4 31.8,-5 47.6,-0.7 15.9,4.3 31.5,16.7 47.4,23.5 15.8,6.8 31.8,8.2 47.6,6.2 15.9,-2 31.5,-7.4 47.2,-12.2 15.7,-4.8 31.3,-9.2 47.2,-6.2 15.8,3 31.8,13.4 47.6,17.7 15.9,4.3 31.5,2.7 47.2,-3 15.7,-5.7 31.3,-15.3 47.2,-18.3 15.8,-3 31.8,0.6 47.6,-1.2 15.9,-1.8 31.5,-9.2 47.4,-6.2 15.8,3 31.8,16.4 47.6,22.5 15.9,6.2 31.5,5.2 47.2,3.5 15.7,-1.6 31.3,-4 47.2,-12 15.8,-8 31.8,-21.6 47.6,-23.8 15.9,-2.2 31.5,7.2 39.4,11.8 L 900,163 V 0 h -7.8 C 884.3,0 868.7,0 852.8,0 837,0 821,0 805.2,0 789.3,0 773.7,0 758,0 742.3,0 726.7,0 710.8,0 695,0 679,0 663.2,0 647.3,0 631.7,0 615.8,0 600,0 584,0 568.2,0 552.3,0 536.7,0 521,0 505.3,0 489.7,0 473.8,0 458,0 442,0 426.2,0 410.3,0 394.7,0 379,0 363.3,0 347.7,0 331.8,0 316,0 300,0 284.2,0 268.3,0 252.7,0 236.8,0 221,0 205,0 189.2,0 173.3,0 157.7,0 142,0 126.3,0 110.7,0 94.8,0 79,0 63,0 47.2,0 31.3,0 15.7,0 7.8,0 H 0 Z"
       fill="#2ebfa5"
       id="path846" />
    <path
       d="m 0,139 7.8,-0.2 c 7.9,-0.1 23.5,-0.5 39.4,-3 15.8,-2.5 31.8,-7.1 47.6,-5.3 15.9,1.8 31.5,10.2 47.2,16.7 15.7,6.5 31.3,11.1 47.2,13.8 15.8,2.7 31.8,3.3 47.6,-2.7 15.9,-6 31.5,-18.6 47.4,-19.8 15.8,-1.2 31.8,9.2 47.6,9.3 15.9,0.2 31.5,-9.8 47.2,-14.3 15.7,-4.5 31.3,-3.5 47.2,-2.2 15.8,1.4 31.8,3 47.6,5.4 15.9,2.3 31.5,5.3 47.2,3.6 15.7,-1.6 31.3,-8 47.2,-9.3 15.8,-1.3 31.8,2.3 47.6,5.8 15.9,3.5 31.5,6.9 47.4,12 15.8,5.2 31.8,12.2 47.6,7.2 15.9,-5 31.5,-22 47.2,-30.5 15.7,-8.5 31.3,-8.5 47.2,-7.7 15.8,0.9 31.8,2.5 47.6,10.2 15.9,7.7 31.5,21.3 39.4,28.2 L 900,163 V 0 h -7.8 C 884.3,0 868.7,0 852.8,0 837,0 821,0 805.2,0 789.3,0 773.7,0 758,0 742.3,0 726.7,0 710.8,0 695,0 679,0 663.2,0 647.3,0 631.7,0 615.8,0 600,0 584,0 568.2,0 552.3,0 536.7,0 521,0 505.3,0 489.7,0 473.8,0 458,0 442,0 426.2,0 410.3,0 394.7,0 379,0 363.3,0 347.7,0 331.8,0 316,0 300,0 284.2,0 268.3,0 252.7,0 236.8,0 221,0 205,0 189.2,0 173.3,0 157.7,0 142,0 126.3,0 110.7,0 94.8,0 79,0 63,0 47.2,0 31.3,0 15.7,0 7.8,0 H 0 Z"
       fill="#00bbaf"
       id="path848" />
    <path
       d="m 0,113 7.8,4.5 c 7.9,4.5 23.5,13.5 39.4,15.5 15.8,2 31.8,-3 47.6,0.3 15.9,3.4 31.5,15 47.2,17.5 15.7,2.5 31.3,-4.1 47.2,-11.5 15.8,-7.3 31.8,-15.3 47.6,-15.8 15.9,-0.5 31.5,6.5 47.4,5.8 15.8,-0.6 31.8,-9 47.6,-8.3 15.9,0.7 31.5,10.3 47.2,10.3 15.7,0 31.3,-9.6 47.2,-7.8 15.8,1.8 31.8,15.2 47.6,21.3 15.9,6.2 31.5,5.2 47.2,4.4 15.7,-0.9 31.3,-1.5 47.2,-8.4 15.8,-6.8 31.8,-19.8 47.6,-19 15.9,0.9 31.5,15.5 47.4,20.7 15.8,5.2 31.8,0.8 47.6,-6.7 15.9,-7.5 31.5,-18.1 47.2,-15 15.7,3.2 31.3,20.2 47.2,21.2 15.8,1 31.8,-14 47.6,-21 15.9,-7 31.5,-6 39.4,-5.5 L 900,116 V 0 h -7.8 C 884.3,0 868.7,0 852.8,0 837,0 821,0 805.2,0 789.3,0 773.7,0 758,0 742.3,0 726.7,0 710.8,0 695,0 679,0 663.2,0 647.3,0 631.7,0 615.8,0 600,0 584,0 568.2,0 552.3,0 536.7,0 521,0 505.3,0 489.7,0 473.8,0 458,0 442,0 426.2,0 410.3,0 394.7,0 379,0 363.3,0 347.7,0 331.8,0 316,0 300,0 284.2,0 268.3,0 252.7,0 236.8,0 221,0 205,0 189.2,0 173.3,0 157.7,0 142,0 126.3,0 110.7,0 94.8,0 79,0 63,0 47.2,0 31.3,0 15.7,0 7.8,0 H 0 Z"
       fill="#00b6b7"
       id="path850" />
    <path
       d="m 0,127 7.8,-3.2 c 7.9,-3.1 23.5,-9.5 39.4,-6.5 15.8,3 31.8,15.4 47.6,16 15.9,0.7 31.5,-10.3 47.2,-14.6 15.7,-4.4 31.3,-2 47.2,-0.9 15.8,1.2 31.8,1.2 47.6,0.7 15.9,-0.5 31.5,-1.5 47.4,-1.3 15.8,0.1 31.8,1.5 47.6,2.5 15.9,1 31.5,1.6 47.2,5.6 15.7,4 31.3,11.4 47.2,12.4 15.8,1 31.8,-4.4 47.6,-5.2 15.9,-0.8 31.5,2.8 47.2,2.7 15.7,-0.2 31.3,-4.2 47.2,-7.2 15.8,-3 31.8,-5 47.6,-10.2 15.9,-5.1 31.5,-13.5 47.4,-12.8 15.8,0.7 31.8,10.3 47.6,15.5 15.9,5.2 31.5,5.8 47.2,2.3 15.7,-3.5 31.3,-11.1 47.2,-11.8 15.8,-0.7 31.8,5.7 47.6,10 15.9,4.3 31.5,6.7 39.4,7.8 L 900,130 V 0 h -7.8 C 884.3,0 868.7,0 852.8,0 837,0 821,0 805.2,0 789.3,0 773.7,0 758,0 742.3,0 726.7,0 710.8,0 695,0 679,0 663.2,0 647.3,0 631.7,0 615.8,0 600,0 584,0 568.2,0 552.3,0 536.7,0 521,0 505.3,0 489.7,0 473.8,0 458,0 442,0 426.2,0 410.3,0 394.7,0 379,0 363.3,0 347.7,0 331.8,0 316,0 300,0 284.2,0 268.3,0 252.7,0 236.8,0 221,0 205,0 189.2,0 173.3,0 157.7,0 142,0 126.3,0 110.7,0 94.8,0 79,0 63,0 47.2,0 31.3,0 15.7,0 7.8,0 H 0 Z"
       fill="#00b0be"
       id="path852" />
    <path
       d="m 0,89 7.8,3.7 c 7.9,3.6 23.5,11 39.4,15.3 15.8,4.3 31.8,5.7 47.6,1.3 15.9,-4.3 31.5,-14.3 47.2,-18 15.7,-3.6 31.3,-1 47.2,0 15.8,1 31.8,0.4 47.6,3 15.9,2.7 31.5,8.7 47.4,12.4 15.8,3.6 31.8,5 47.6,5.1 15.9,0.2 31.5,-0.8 47.2,-2.3 15.7,-1.5 31.3,-3.5 47.2,-2.3 15.8,1.1 31.8,5.5 47.6,8.1 15.9,2.7 31.5,3.7 47.2,0 15.7,-3.6 31.3,-12 47.2,-16.5 15.8,-4.5 31.8,-5.1 47.6,-5.3 15.9,-0.2 31.5,0.2 47.4,5.5 15.8,5.3 31.8,15.7 47.6,20 15.9,4.3 31.5,2.7 47.2,-0.3 15.7,-3 31.3,-7.4 47.2,-5.5 15.8,1.8 31.8,9.8 47.6,10.1 15.9,0.4 31.5,-7 39.4,-10.6 L 900,109 V 0 h -7.8 C 884.3,0 868.7,0 852.8,0 837,0 821,0 805.2,0 789.3,0 773.7,0 758,0 742.3,0 726.7,0 710.8,0 695,0 679,0 663.2,0 647.3,0 631.7,0 615.8,0 600,0 584,0 568.2,0 552.3,0 536.7,0 521,0 505.3,0 489.7,0 473.8,0 458,0 442,0 426.2,0 410.3,0 394.7,0 379,0 363.3,0 347.7,0 331.8,0 316,0 300,0 284.2,0 268.3,0 252.7,0 236.8,0 221,0 205,0 189.2,0 173.3,0 157.7,0 142,0 126.3,0 110.7,0 94.8,0 79,0 63,0 47.2,0 31.3,0 15.7,0 7.8,0 H 0 Z"
       fill="#00aac3"
       id="path854" />
    <path
       d="m 0,78 7.8,3.2 c 7.9,3.1 23.5,9.5 39.4,12.1 C 63,96 79,95 94.8,97.7 c 15.9,2.6 31.5,9 47.2,12 15.7,3 31.3,2.6 47.2,0.5 15.8,-2.2 31.8,-6.2 47.6,-12.4 15.9,-6.1 31.5,-14.5 47.4,-14.3 15.8,0.2 31.8,8.8 47.6,10.2 15.9,1.3 31.5,-4.7 47.2,-8.4 15.7,-3.6 31.3,-5 47.2,-4.1 15.8,0.8 31.8,3.8 47.6,9.5 15.9,5.6 31.5,14 47.2,14.3 15.7,0.3 31.3,-7.3 47.2,-9.3 15.8,-2 31.8,1.6 47.6,4.6 15.9,3 31.5,5.4 47.4,2.9 15.8,-2.5 31.8,-9.9 47.6,-14.7 15.9,-4.8 31.5,-7.2 47.2,-4.7 15.7,2.5 31.3,9.9 47.2,15.5 15.8,5.7 31.8,9.7 47.6,11.4 15.9,1.6 31.5,1 39.4,0.6 L 900,111 V 0 h -7.8 C 884.3,0 868.7,0 852.8,0 837,0 821,0 805.2,0 789.3,0 773.7,0 758,0 742.3,0 726.7,0 710.8,0 695,0 679,0 663.2,0 647.3,0 631.7,0 615.8,0 600,0 584,0 568.2,0 552.3,0 536.7,0 521,0 505.3,0 489.7,0 473.8,0 458,0 442,0 426.2,0 410.3,0 394.7,0 379,0 363.3,0 347.7,0 331.8,0 316,0 300,0 284.2,0 268.3,0 252.7,0 236.8,0 221,0 205,0 189.2,0 173.3,0 157.7,0 142,0 126.3,0 110.7,0 94.8,0 79,0 63,0 47.2,0 31.3,0 15.7,0 7.8,0 H 0 Z"
       fill="#00a4c6"
       id="path856" />
    <path
       d="M 0,77 7.8,76.5 C 15.7,76 31.3,75 47.2,73.8 63,72.7 79,71.3 94.8,71.5 c 15.9,0.2 31.5,1.8 47.2,4.5 15.7,2.7 31.3,6.3 47.2,6 15.8,-0.3 31.8,-4.7 47.6,-7.2 15.9,-2.5 31.5,-3.1 47.4,-3.1 15.8,0 31.8,0.6 47.6,2.6 15.9,2 31.5,5.4 47.2,5.4 15.7,0 31.3,-3.4 47.2,-3 C 442,77 458,81 473.8,82.5 489.7,84 505.3,83 521,80.7 536.7,78.3 552.3,74.7 568.2,73 584,71.3 600,71.7 615.8,70.8 631.7,70 647.3,68 663.2,69.5 679,71 695,76 710.8,80 c 15.9,4 31.5,7 47.2,10.3 15.7,3.4 31.3,7 47.2,4.2 15.8,-2.8 31.8,-12.2 47.6,-18.7 15.9,-6.5 31.5,-10.1 39.4,-12 L 900,62 V 0 h -7.8 C 884.3,0 868.7,0 852.8,0 837,0 821,0 805.2,0 789.3,0 773.7,0 758,0 742.3,0 726.7,0 710.8,0 695,0 679,0 663.2,0 647.3,0 631.7,0 615.8,0 600,0 584,0 568.2,0 552.3,0 536.7,0 521,0 505.3,0 489.7,0 473.8,0 458,0 442,0 426.2,0 410.3,0 394.7,0 379,0 363.3,0 347.7,0 331.8,0 316,0 300,0 284.2,0 268.3,0 252.7,0 236.8,0 221,0 205,0 189.2,0 173.3,0 157.7,0 142,0 126.3,0 110.7,0 94.8,0 79,0 63,0 47.2,0 31.3,0 15.7,0 7.8,0 H 0 Z"
       fill="#009ec8"
       id="path858" />
    <path
       d="m 0,85 7.8,-2.2 c 7.9,-2.1 23.5,-6.5 39.4,-11 15.8,-4.5 31.8,-9.1 47.6,-7.1 15.9,2 31.5,10.6 47.2,11.6 15.7,1 31.3,-5.6 47.2,-6.5 C 205,69 221,74 236.8,73.5 252.7,73 268.3,67 284.2,63.3 300,59.7 316,58.3 331.8,57.2 347.7,56 363.3,55 379,54.3 c 15.7,-0.6 31.3,-1 47.2,3.5 15.8,4.5 31.8,13.9 47.6,15.5 15.9,1.7 31.5,-4.3 47.2,-7.8 15.7,-3.5 31.3,-4.5 47.2,-3.8 15.8,0.6 31.8,3 47.6,7.1 15.9,4.2 31.5,10.2 47.4,11.9 15.8,1.6 31.8,-1 47.6,-4.7 15.9,-3.7 31.5,-8.3 47.2,-8 15.7,0.3 31.3,5.7 47.2,8.5 15.8,2.8 31.8,3.2 47.6,-1.5 15.9,-4.7 31.5,-14.3 39.4,-19.2 L 900,51 V 0 h -7.8 C 884.3,0 868.7,0 852.8,0 837,0 821,0 805.2,0 789.3,0 773.7,0 758,0 742.3,0 726.7,0 710.8,0 695,0 679,0 663.2,0 647.3,0 631.7,0 615.8,0 600,0 584,0 568.2,0 552.3,0 536.7,0 521,0 505.3,0 489.7,0 473.8,0 458,0 442,0 426.2,0 410.3,0 394.7,0 379,0 363.3,0 347.7,0 331.8,0 316,0 300,0 284.2,0 268.3,0 252.7,0 236.8,0 221,0 205,0 189.2,0 173.3,0 157.7,0 142,0 126.3,0 110.7,0 94.8,0 79,0 63,0 47.2,0 31.3,0 15.7,0 7.8,0 H 0 Z"
       fill="#0097c9"
       id="path860" />
    <path
       d="m 0,64 7.8,-0.2 c 7.9,-0.1 23.5,-0.5 39.4,-1.5 15.8,-1 31.8,-2.6 47.6,-4.6 15.9,-2 31.5,-4.4 47.2,-3.5 15.7,0.8 31.3,4.8 47.2,6.8 15.8,2 31.8,2 47.6,1.7 15.9,-0.4 31.5,-1 47.4,-1 15.8,0 31.8,0.6 47.6,-2.5 C 347.7,56 363.3,49 379,46.7 c 15.7,-2.4 31.3,0 47.2,0 15.8,0 31.8,-2.4 47.6,-1 15.9,1.3 31.5,6.3 47.2,7 15.7,0.6 31.3,-3 47.2,-1.4 15.8,1.7 31.8,8.7 47.6,10.5 15.9,1.9 31.5,-1.5 47.4,-3 15.8,-1.5 31.8,-1.1 47.6,-2 15.9,-0.8 31.5,-2.8 47.2,-2.6 15.7,0.1 31.3,2.5 47.2,4.8 15.8,2.3 31.8,4.7 47.6,3.7 15.9,-1 31.5,-5.4 39.4,-7.5 L 900,53 V 0 h -7.8 C 884.3,0 868.7,0 852.8,0 837,0 821,0 805.2,0 789.3,0 773.7,0 758,0 742.3,0 726.7,0 710.8,0 695,0 679,0 663.2,0 647.3,0 631.7,0 615.8,0 600,0 584,0 568.2,0 552.3,0 536.7,0 521,0 505.3,0 489.7,0 473.8,0 458,0 442,0 426.2,0 410.3,0 394.7,0 379,0 363.3,0 347.7,0 331.8,0 316,0 300,0 284.2,0 268.3,0 252.7,0 236.8,0 221,0 205,0 189.2,0 173.3,0 157.7,0 142,0 126.3,0 110.7,0 94.8,0 79,0 63,0 47.2,0 31.3,0 15.7,0 7.8,0 H 0 Z"
       fill="#0090ca"
       id="path862" />
    <path
       d="M 0,53 7.8,51.2 C 15.7,49.3 31.3,45.7 47.2,43.5 63,41.3 79,40.7 94.8,39.3 110.7,38 126.3,36 142,34.5 157.7,33 173.3,32 189.2,32.8 c 15.8,0.9 31.8,3.5 47.6,4.2 15.9,0.7 31.5,-0.7 47.4,-2 15.8,-1.3 31.8,-2.7 47.6,-2.8 15.9,-0.2 31.5,0.8 47.2,4.3 15.7,3.5 31.3,9.5 47.2,12.2 15.8,2.6 31.8,2 47.6,2 15.9,0 31.5,0.6 47.2,-2.2 15.7,-2.8 31.3,-9.2 47.2,-10.7 15.8,-1.5 31.8,1.9 47.6,5 15.9,3.2 31.5,6.2 47.4,8 15.8,1.9 31.8,2.5 47.6,-0.1 15.9,-2.7 31.5,-8.7 47.2,-10.5 15.7,-1.9 31.3,0.5 47.2,0.5 15.8,0 31.8,-2.4 47.6,-0.5 15.9,1.8 31.5,7.8 39.4,10.8 l 7.8,3 V 0 h -7.8 C 884.3,0 868.7,0 852.8,0 837,0 821,0 805.2,0 789.3,0 773.7,0 758,0 742.3,0 726.7,0 710.8,0 695,0 679,0 663.2,0 647.3,0 631.7,0 615.8,0 600,0 584,0 568.2,0 552.3,0 536.7,0 521,0 505.3,0 489.7,0 473.8,0 458,0 442,0 426.2,0 410.3,0 394.7,0 379,0 363.3,0 347.7,0 331.8,0 316,0 300,0 284.2,0 268.3,0 252.7,0 236.8,0 221,0 205,0 189.2,0 173.3,0 157.7,0 142,0 126.3,0 110.7,0 94.8,0 79,0 63,0 47.2,0 31.3,0 15.7,0 7.8,0 H 0 Z"
       fill="#0089ca"
       id="path864" />
    <path
       d="m 0,31 7.8,-0.2 c 7.9,-0.1 23.5,-0.5 39.4,0.7 15.8,1.2 31.8,3.8 47.6,5.2 15.9,1.3 31.5,1.3 47.2,0.5 15.7,-0.9 31.3,-2.5 47.2,-4.4 C 205,31 221,29 236.8,27.7 c 15.9,-1.4 31.5,-2 47.4,-3.4 C 300,23 316,21 331.8,20.8 c 15.9,-0.1 31.5,1.5 47.2,4.4 15.7,2.8 31.3,6.8 47.2,6.5 15.8,-0.4 31.8,-5 47.6,-6.9 15.9,-1.8 31.5,-0.8 47.2,2.2 15.7,3 31.3,8 47.2,8.8 15.8,0.9 31.8,-2.5 47.6,-4.8 15.9,-2.3 31.5,-3.7 47.4,-3 15.8,0.7 31.8,3.3 47.6,4.5 15.9,1.2 31.5,0.8 47.2,1.2 15.7,0.3 31.3,1.3 47.2,0.6 15.8,-0.6 31.8,-3 47.6,-2.5 15.9,0.5 31.5,3.9 39.4,5.5 L 900,39 V 0 h -7.8 C 884.3,0 868.7,0 852.8,0 837,0 821,0 805.2,0 789.3,0 773.7,0 758,0 742.3,0 726.7,0 710.8,0 695,0 679,0 663.2,0 647.3,0 631.7,0 615.8,0 600,0 584,0 568.2,0 552.3,0 536.7,0 521,0 505.3,0 489.7,0 473.8,0 458,0 442,0 426.2,0 410.3,0 394.7,0 379,0 363.3,0 347.7,0 331.8,0 316,0 300,0 284.2,0 268.3,0 252.7,0 236.8,0 221,0 205,0 189.2,0 173.3,0 157.7,0 142,0 126.3,0 110.7,0 94.8,0 79,0 63,0 47.2,0 31.3,0 15.7,0 7.8,0 H 0 Z"
       fill="#0081c8"
       id="path866" />
    <path
       d="m 0,14 7.8,-0.7 c 7.9,-0.6 23.5,-2 39.4,-0.3 15.8,1.7 31.8,6.3 47.6,8.2 15.9,1.8 31.5,0.8 47.2,-0.5 15.7,-1.4 31.3,-3 47.2,-3.5 15.8,-0.5 31.8,0.1 47.6,1.5 15.9,1.3 31.5,3.3 47.4,3 15.8,-0.4 31.8,-3 47.6,-5 15.9,-2 31.5,-3.4 47.2,-2.4 15.7,1 31.3,4.4 47.2,5.4 15.8,1 31.8,-0.4 47.6,-0.9 15.9,-0.5 31.5,-0.1 47.2,-1.3 15.7,-1.2 31.3,-3.8 47.2,-4.2 15.8,-0.3 31.8,1.7 47.6,3.9 15.9,2.1 31.5,4.5 47.4,5 15.8,0.5 31.8,-0.9 47.6,-2.5 15.9,-1.7 31.5,-3.7 47.2,-4 15.7,-0.4 31.3,1 47.2,0.3 15.8,-0.7 31.8,-3.3 47.6,-2.8 15.9,0.5 31.5,4.1 39.4,6 L 900,21 V 0 h -7.8 C 884.3,0 868.7,0 852.8,0 837,0 821,0 805.2,0 789.3,0 773.7,0 758,0 742.3,0 726.7,0 710.8,0 695,0 679,0 663.2,0 647.3,0 631.7,0 615.8,0 600,0 584,0 568.2,0 552.3,0 536.7,0 521,0 505.3,0 489.7,0 473.8,0 458,0 442,0 426.2,0 410.3,0 394.7,0 379,0 363.3,0 347.7,0 331.8,0 316,0 300,0 284.2,0 268.3,0 252.7,0 236.8,0 221,0 205,0 189.2,0 173.3,0 157.7,0 142,0 126.3,0 110.7,0 94.8,0 79,0 63,0 47.2,0 31.3,0 15.7,0 7.8,0 H 0 Z"
       fill="#2179c6"
       id="path868" />
  </g>
</svg>
